# xmcd
#
# Track frame offsets: 
#        150
#        20689
#        31513
#        44252
#        59138
#        68460
#        83548
#        94920
#        108895
#        123077
#        135841
#        162508
#        176604
#        188401
#        203544
#        217164
#        231536
#        247480
#        261303
#        276273
#
# Disc length: 3939 seconds
#
# Revision: 1
# Processed by: cddbd v1.5.2PL0 Copyright (c) Steve Scherf et al.
# Submitted via: ExactAudioCopyFreeDBPlugin 1.0
#
DISCID=1a0f6114
DTITLE=The Delfonics - The Delfonics:  40 Classic Soul Sides
DYEAR=2016
DGENRE=Soul
TTITLE0=Delfonics Theme (How Could You)
TTITLE1=Funny Feeling
TTITLE2=My New Love
TTITLE3=You've Got Yours And I'll Get Mine
TTITLE4=You Can't Be Loving Him
TTITLE5=Didn't I (Blow Your Mind This Time)
TTITLE6=Down Is Up, Up Is Down
TTITLE7=Trying To Make A Fool Of Me
TTITLE8=Baby I Love You
TTITLE9=When You Get Right Down To It
TTITLE10=I Gave To You
TTITLE11=Over And Over
TTITLE12=Think About Me
TTITLE13=Hey! Love
TTITLE14=Walk Right Up To The Sun
TTITLE15=Round and Round
TTITLE16=Tell Me This Is A Dream
TTITLE17=I'm A Man
TTITLE18=Baby I Miss You
TTITLE19=Delfonics Theme
EXTD=
EXTT0=
EXTT1=
EXTT2=
EXTT3=
EXTT4=
EXTT5=
EXTT6=
EXTT7=
EXTT8=
EXTT9=
EXTT10=
EXTT11=
EXTT12=
EXTT13=
EXTT14=
EXTT15=
EXTT16=
EXTT17=
EXTT18=
EXTT19=
PLAYORDER=
